<svg width="77" height="29" viewBox="0 0 77 29" fill="none" xmlns="http://www.w3.org/2000/svg">
<path d="M24.7942 19.1973V17.1244L15.6394 11.9423V6.2419C15.6394 5.38166 14.8727 4.68726 13.9228 4.68726C12.973 4.68726 12.2063 5.38166 12.2063 6.2419V11.9423L3.05145 17.1244V19.1973L12.2063 16.6062V22.3066L9.91759 23.8612V25.4159L13.9228 24.3795L17.9281 25.4159V23.8612L15.6394 22.3066V16.6062L24.7942 19.1973Z" fill="white"/>
<path d="M39.42 15.0601H36.8205V17.5927H35.05V15.0601H32.4645V13.6475H35.05V11.1277H36.8205V13.6475H39.42V15.0601Z" fill="white"/>
<path d="M60.2768 8.37682V3.59009H47.0638V25.1304H73.4897V8.37682H60.2768ZM52.349 22.737H49.7064V20.3436H52.349V22.737ZM52.349 17.9503H49.7064V15.5569H52.349V17.9503ZM52.349 13.1635H49.7064V10.7702H52.349V13.1635ZM52.349 8.37682H49.7064V5.98345H52.349V8.37682ZM57.6342 22.737H54.9916V20.3436H57.6342V22.737ZM57.6342 17.9503H54.9916V15.5569H57.6342V17.9503ZM57.6342 13.1635H54.9916V10.7702H57.6342V13.1635ZM57.6342 8.37682H54.9916V5.98345H57.6342V8.37682ZM70.8472 22.737H60.2768V20.3436H62.9194V17.9503H60.2768V15.5569H62.9194V13.1635H60.2768V10.7702H70.8472V22.737ZM68.2046 13.1635H65.562V15.5569H68.2046V13.1635ZM68.2046 17.9503H65.562V20.3436H68.2046V17.9503Z" fill="white"/>
</svg>
