<svg width="140" height="33" viewBox="0 0 140 33" fill="none" xmlns="http://www.w3.org/2000/svg">
<path d="M40.3368 25.8384L47.7632 5.69385H51.9471L59.3736 25.8384H55.4337L53.8125 21.183H45.8979L44.2418 25.8384H40.3542H40.3368ZM46.8916 18.2929H52.7839L49.8203 9.91659L46.8916 18.2929ZM63.5749 25.8384L58.2927 11.5607H62.1803L65.8412 22.3598L69.5021 11.5607H73.3897L68.09 25.8384H63.5923H63.5749ZM81.4088 26.1845C79.9619 26.1845 78.6718 25.873 77.5561 25.2673C76.4404 24.6616 75.5513 23.7963 74.9238 22.6714C74.2787 21.5637 73.9649 20.2658 73.9649 18.812C73.9649 17.3583 74.2787 16.0257 74.8889 14.8662C75.5339 13.7067 76.3881 12.8241 77.5038 12.1837C78.6195 11.5261 79.9444 11.1973 81.4437 11.1973C82.9429 11.1973 84.0935 11.5088 85.1918 12.1145C86.2726 12.7202 87.1094 13.5682 87.7195 14.6412C88.3297 15.6969 88.6435 16.8737 88.6435 18.189C88.6435 19.5043 88.6435 18.6217 88.6086 18.8467C88.6086 19.0716 88.6086 19.3139 88.5738 19.5735H77.6433C77.713 20.6811 78.114 21.5637 78.8113 22.1868C79.5261 22.8271 80.3803 23.1386 81.3914 23.1386C82.4025 23.1386 82.7686 22.9829 83.2741 22.654C83.7971 22.3079 84.1807 21.8753 84.4422 21.3215H88.2077C87.9287 22.2214 87.4755 23.0521 86.8479 23.7963C86.2377 24.5231 85.4533 25.0942 84.5293 25.5269C83.6228 25.9422 82.5943 26.1672 81.4263 26.1672L81.4088 26.1845ZM81.4437 14.2086C80.5372 14.2086 79.7353 14.4682 79.0379 14.9873C78.3406 15.4892 77.9048 16.2507 77.6956 17.2891H84.8605C84.8082 16.3545 84.4596 15.5931 83.8146 15.0393C83.1695 14.4855 82.3851 14.2086 81.4437 14.2086ZM91.1713 25.8384V11.5607H94.4487L94.745 13.9836C95.1983 13.1356 95.8259 12.4606 96.6626 11.976C97.5169 11.4742 98.5105 11.2319 99.6437 11.2319C101.422 11.2319 102.799 11.7857 103.793 12.8933C104.786 14.0009 105.275 15.645 105.275 17.791V25.8557H101.561V18.1371C101.561 16.9083 101.317 15.9738 100.812 15.3162C100.306 14.6585 99.5216 14.3297 98.4582 14.3297C97.3948 14.3297 96.558 14.6931 95.8782 15.42C95.2157 16.1469 94.8845 17.1679 94.8845 18.4659V25.8384H91.1713ZM113.625 26.1845C111.829 26.1845 110.435 25.6307 109.441 24.5231C108.482 23.4155 107.994 21.7714 107.994 19.6254V11.5607H111.672V19.2793C111.672 20.5081 111.916 21.4426 112.422 22.1002C112.928 22.7579 113.712 23.0867 114.793 23.0867C115.874 23.0867 116.658 22.7233 117.321 21.9964C118.001 21.2695 118.332 20.2485 118.332 18.9505V11.578H122.045V25.8557H118.768L118.471 23.4328C118.018 24.2808 117.373 24.9558 116.536 25.4404C115.699 25.9422 114.723 26.1845 113.607 26.1845H113.625ZM132.278 26.1845C130.831 26.1845 129.541 25.873 128.425 25.2673C127.31 24.6616 126.421 23.7963 125.793 22.6714C125.148 21.5637 124.834 20.2658 124.834 18.812C124.834 17.3583 125.148 16.0257 125.758 14.8662C126.403 13.7067 127.257 12.8241 128.373 12.1837C129.489 11.5261 130.814 11.1973 132.313 11.1973C133.812 11.1973 134.963 11.5088 136.061 12.1145C137.142 12.7202 137.979 13.5682 138.589 14.6412C139.199 15.6969 139.513 16.8737 139.513 18.189C139.513 19.5043 139.513 18.6217 139.478 18.8467C139.478 19.0716 139.478 19.3139 139.443 19.5735H128.513C128.582 20.6811 128.983 21.5637 129.681 22.1868C130.395 22.8271 131.25 23.1386 132.261 23.1386C133.272 23.1386 133.638 22.9829 134.143 22.654C134.666 22.3079 135.05 21.8753 135.311 21.3215H139.077C138.798 22.2214 138.345 23.0521 137.717 23.7963C137.107 24.5231 136.323 25.0942 135.399 25.5269C134.492 25.9422 133.464 26.1672 132.296 26.1672L132.278 26.1845ZM132.313 14.2086C131.407 14.2086 130.605 14.4682 129.907 14.9873C129.21 15.4892 128.774 16.2507 128.565 17.2891H135.73C135.678 16.3545 135.329 15.5931 134.684 15.0393C134.039 14.4855 133.254 14.2086 132.313 14.2086Z" fill="#102D47"/>
<mask id="mask0_18_3172" style="mask-type:alpha" maskUnits="userSpaceOnUse" x="0" y="0" width="32" height="32">
<path d="M32 16C32 24.8366 24.8366 32 16 32C7.16344 32 0 24.8366 0 16C0 7.16344 7.16344 0 16 0C24.8366 0 32 7.16344 32 16Z" fill="#D9D9D9"/>
</mask>
<g mask="url(#mask0_18_3172)">
<path d="M32 16C32 24.8366 24.8366 32 16 32C7.16344 32 0 24.8366 0 16C0 7.16344 7.16344 0 16 0C24.8366 0 32 7.16344 32 16Z" fill="url(#paint0_linear_18_3172)"/>
<path d="M26.4 9.60026C28.4267 6.82692 32.5689 8.87137 34.08 10.0269L34.9867 10.9869L38.4 17.0669L32.64 30.9869L10.9333 33.1736L-0.213318 24.4802L9.38668 28.2669L19.6267 20.3202L26.4 9.60026Z" fill="url(#paint1_linear_18_3172)"/>
<path d="M6.98669 15.4134C8.65069 4.14938 18.0445 1.26226 22.3467 1.28004L27.4667 -0.959961L33.1734 5.06671L29.6 7.57337C27.7334 5.17337 25.28 3.89337 18.2934 5.49337C12.704 6.77337 8.42669 12.64 6.98669 15.4134Z" fill="white"/>
<path d="M16.8533 26.3468C14.0373 29.3762 9.61775 29.9202 7.83998 29.7602L5.54664 35.1468L2.07998 30.7202L-4.10669 21.5468L0.479977 19.9468C2.45331 25.2268 6.39998 25.8135 10.3466 25.4935C13.504 25.2375 17.7066 20.8002 19.4133 18.6135L14.1866 15.0935L15.1118 14.2608C15.2019 14.1798 15.3221 14.1409 15.4426 14.1537L20.478 14.6915C20.6497 14.7098 20.8216 14.658 20.9546 14.5477L25.6944 10.6154C26.3511 10.0705 27.3126 10.7206 27.0517 11.5331L25.2077 17.2736C25.1519 17.4474 25.173 17.6368 25.2656 17.7941L27.8466 22.177C27.9101 22.2848 27.9231 22.4149 27.8822 22.5331L27.4666 23.7335L22.08 20.2668C21.5111 21.0313 19.6693 23.3175 16.8533 26.3468Z" fill="white"/>
</g>
<defs>
<linearGradient id="paint0_linear_18_3172" x1="16" y1="0" x2="16" y2="32" gradientUnits="userSpaceOnUse">
<stop stop-color="#4C87F6"/>
<stop offset="1" stop-color="#2F73F2"/>
</linearGradient>
<linearGradient id="paint1_linear_18_3172" x1="19.0933" y1="8.36179" x2="19.0933" y2="33.1736" gradientUnits="userSpaceOnUse">
<stop stop-color="#165DE3"/>
<stop offset="1" stop-color="#9B87EB"/>
</linearGradient>
</defs>
</svg>
